<mxfile host="app.diagrams.net" agent="Mozilla/5.0 (Windows NT 10.0; Win64; x64) AppleWebKit/537.36 (KHTML, like Gecko) Chrome/132.0.0.0 Safari/537.36 Edg/132.0.0.0" version="26.0.10">
  <diagram name="Page-1" id="DUGOxIehoya3k0pjJIdx">
    <mxGraphModel dx="786" dy="467" grid="1" gridSize="10" guides="1" tooltips="1" connect="1" arrows="1" fold="1" page="1" pageScale="1" pageWidth="850" pageHeight="1100" math="0" shadow="0">
      <root>
        <mxCell id="0" />
        <mxCell id="1" parent="0" />
        <mxCell id="7kY1SfQGC0tW5TCl2VxB-7" value="" style="edgeStyle=orthogonalEdgeStyle;rounded=0;orthogonalLoop=1;jettySize=auto;html=1;" edge="1" parent="1" source="7kY1SfQGC0tW5TCl2VxB-1" target="7kY1SfQGC0tW5TCl2VxB-2">
          <mxGeometry relative="1" as="geometry" />
        </mxCell>
        <mxCell id="7kY1SfQGC0tW5TCl2VxB-1" value="" style="image;aspect=fixed;html=1;points=[];align=center;fontSize=12;image=img/lib/azure2/storage/Storage_Accounts.svg;" vertex="1" parent="1">
          <mxGeometry x="30" y="60" width="65" height="52" as="geometry" />
        </mxCell>
        <mxCell id="7kY1SfQGC0tW5TCl2VxB-8" value="" style="edgeStyle=orthogonalEdgeStyle;rounded=0;orthogonalLoop=1;jettySize=auto;html=1;" edge="1" parent="1" source="7kY1SfQGC0tW5TCl2VxB-2" target="7kY1SfQGC0tW5TCl2VxB-3">
          <mxGeometry relative="1" as="geometry" />
        </mxCell>
        <mxCell id="7kY1SfQGC0tW5TCl2VxB-2" value="" style="image;aspect=fixed;html=1;points=[];align=center;fontSize=12;image=img/lib/azure2/integration/System_Topic.svg;" vertex="1" parent="1">
          <mxGeometry x="140" y="56" width="68" height="60" as="geometry" />
        </mxCell>
        <mxCell id="7kY1SfQGC0tW5TCl2VxB-3" value="" style="image;aspect=fixed;html=1;points=[];align=center;fontSize=12;image=img/lib/azure2/integration/Event_Grid_Subscriptions.svg;" vertex="1" parent="1">
          <mxGeometry x="260" y="56" width="67" height="60" as="geometry" />
        </mxCell>
        <mxCell id="7kY1SfQGC0tW5TCl2VxB-28" style="edgeStyle=orthogonalEdgeStyle;rounded=0;orthogonalLoop=1;jettySize=auto;html=1;" edge="1" parent="1">
          <mxGeometry relative="1" as="geometry">
            <mxPoint x="570" y="210" as="targetPoint" />
            <mxPoint x="500" y="210" as="sourcePoint" />
          </mxGeometry>
        </mxCell>
        <mxCell id="7kY1SfQGC0tW5TCl2VxB-4" value="" style="image;aspect=fixed;html=1;points=[];align=center;fontSize=12;image=img/lib/azure2/compute/Function_Apps.svg;shadow=1;" vertex="1" parent="1">
          <mxGeometry x="410" y="180" width="68" height="60" as="geometry" />
        </mxCell>
        <mxCell id="7kY1SfQGC0tW5TCl2VxB-6" value="" style="image;aspect=fixed;html=1;points=[];align=center;fontSize=12;image=img/lib/azure2/app_services/Search_Services.svg;" vertex="1" parent="1">
          <mxGeometry x="570" y="66.88" width="68" height="49.120000000000005" as="geometry" />
        </mxCell>
        <mxCell id="7kY1SfQGC0tW5TCl2VxB-11" value="" style="edgeStyle=orthogonalEdgeStyle;rounded=0;orthogonalLoop=1;jettySize=auto;html=1;" edge="1" parent="1" target="7kY1SfQGC0tW5TCl2VxB-14">
          <mxGeometry relative="1" as="geometry">
            <mxPoint x="95" y="210" as="sourcePoint" />
          </mxGeometry>
        </mxCell>
        <mxCell id="7kY1SfQGC0tW5TCl2VxB-12" value="" style="image;aspect=fixed;html=1;points=[];align=center;fontSize=12;image=img/lib/azure2/storage/Storage_Accounts.svg;" vertex="1" parent="1">
          <mxGeometry x="30" y="188" width="65" height="52" as="geometry" />
        </mxCell>
        <mxCell id="7kY1SfQGC0tW5TCl2VxB-13" value="" style="edgeStyle=orthogonalEdgeStyle;rounded=0;orthogonalLoop=1;jettySize=auto;html=1;" edge="1" parent="1" source="7kY1SfQGC0tW5TCl2VxB-14" target="7kY1SfQGC0tW5TCl2VxB-15">
          <mxGeometry relative="1" as="geometry" />
        </mxCell>
        <mxCell id="7kY1SfQGC0tW5TCl2VxB-14" value="" style="image;aspect=fixed;html=1;points=[];align=center;fontSize=12;image=img/lib/azure2/integration/System_Topic.svg;" vertex="1" parent="1">
          <mxGeometry x="140" y="180" width="68" height="60" as="geometry" />
        </mxCell>
        <mxCell id="7kY1SfQGC0tW5TCl2VxB-25" style="edgeStyle=orthogonalEdgeStyle;rounded=0;orthogonalLoop=1;jettySize=auto;html=1;" edge="1" parent="1" source="7kY1SfQGC0tW5TCl2VxB-15">
          <mxGeometry relative="1" as="geometry">
            <mxPoint x="400" y="210" as="targetPoint" />
          </mxGeometry>
        </mxCell>
        <mxCell id="7kY1SfQGC0tW5TCl2VxB-15" value="" style="image;aspect=fixed;html=1;points=[];align=center;fontSize=12;image=img/lib/azure2/integration/Event_Grid_Subscriptions.svg;" vertex="1" parent="1">
          <mxGeometry x="260" y="180" width="67" height="60" as="geometry" />
        </mxCell>
        <mxCell id="7kY1SfQGC0tW5TCl2VxB-16" value="" style="image;aspect=fixed;html=1;points=[];align=center;fontSize=12;image=img/lib/azure2/app_services/Search_Services.svg;" vertex="1" parent="1">
          <mxGeometry x="580" y="180" width="68" height="49.120000000000005" as="geometry" />
        </mxCell>
        <mxCell id="7kY1SfQGC0tW5TCl2VxB-17" value="" style="edgeStyle=orthogonalEdgeStyle;rounded=0;orthogonalLoop=1;jettySize=auto;html=1;" edge="1" parent="1" target="7kY1SfQGC0tW5TCl2VxB-20">
          <mxGeometry relative="1" as="geometry">
            <mxPoint x="95" y="390" as="sourcePoint" />
          </mxGeometry>
        </mxCell>
        <mxCell id="7kY1SfQGC0tW5TCl2VxB-18" value="" style="image;aspect=fixed;html=1;points=[];align=center;fontSize=12;image=img/lib/azure2/storage/Storage_Accounts.svg;" vertex="1" parent="1">
          <mxGeometry x="30" y="368" width="65" height="52" as="geometry" />
        </mxCell>
        <mxCell id="7kY1SfQGC0tW5TCl2VxB-19" value="" style="edgeStyle=orthogonalEdgeStyle;rounded=0;orthogonalLoop=1;jettySize=auto;html=1;" edge="1" parent="1" source="7kY1SfQGC0tW5TCl2VxB-20" target="7kY1SfQGC0tW5TCl2VxB-21">
          <mxGeometry relative="1" as="geometry" />
        </mxCell>
        <mxCell id="7kY1SfQGC0tW5TCl2VxB-20" value="" style="image;aspect=fixed;html=1;points=[];align=center;fontSize=12;image=img/lib/azure2/integration/System_Topic.svg;" vertex="1" parent="1">
          <mxGeometry x="140" y="360" width="68" height="60" as="geometry" />
        </mxCell>
        <mxCell id="7kY1SfQGC0tW5TCl2VxB-21" value="" style="image;aspect=fixed;html=1;points=[];align=center;fontSize=12;image=img/lib/azure2/integration/Event_Grid_Subscriptions.svg;" vertex="1" parent="1">
          <mxGeometry x="260" y="360" width="67" height="60" as="geometry" />
        </mxCell>
        <mxCell id="7kY1SfQGC0tW5TCl2VxB-22" value="" style="image;aspect=fixed;html=1;points=[];align=center;fontSize=12;image=img/lib/azure2/app_services/Search_Services.svg;" vertex="1" parent="1">
          <mxGeometry x="580" y="365.44" width="68" height="49.120000000000005" as="geometry" />
        </mxCell>
        <mxCell id="7kY1SfQGC0tW5TCl2VxB-23" value="" style="endArrow=classic;html=1;rounded=0;entryX=0;entryY=1;entryDx=0;entryDy=0;" edge="1" parent="1" target="7kY1SfQGC0tW5TCl2VxB-29">
          <mxGeometry width="50" height="50" relative="1" as="geometry">
            <mxPoint x="335" y="390" as="sourcePoint" />
            <mxPoint x="425" y="290" as="targetPoint" />
          </mxGeometry>
        </mxCell>
        <mxCell id="7kY1SfQGC0tW5TCl2VxB-24" value="" style="endArrow=classic;html=1;rounded=0;entryX=0;entryY=0;entryDx=0;entryDy=0;" edge="1" parent="1" target="7kY1SfQGC0tW5TCl2VxB-29">
          <mxGeometry width="50" height="50" relative="1" as="geometry">
            <mxPoint x="330" y="90" as="sourcePoint" />
            <mxPoint x="430" y="74" as="targetPoint" />
          </mxGeometry>
        </mxCell>
        <mxCell id="7kY1SfQGC0tW5TCl2VxB-26" value="" style="endArrow=classic;html=1;rounded=0;exitX=1;exitY=0;exitDx=0;exitDy=0;" edge="1" parent="1" source="7kY1SfQGC0tW5TCl2VxB-29">
          <mxGeometry width="50" height="50" relative="1" as="geometry">
            <mxPoint x="470" y="174" as="sourcePoint" />
            <mxPoint x="560" y="100" as="targetPoint" />
          </mxGeometry>
        </mxCell>
        <mxCell id="7kY1SfQGC0tW5TCl2VxB-27" value="" style="endArrow=classic;html=1;rounded=0;exitX=1;exitY=1;exitDx=0;exitDy=0;entryX=0;entryY=0.593;entryDx=0;entryDy=0;entryPerimeter=0;" edge="1" parent="1" source="7kY1SfQGC0tW5TCl2VxB-29" target="7kY1SfQGC0tW5TCl2VxB-22">
          <mxGeometry width="50" height="50" relative="1" as="geometry">
            <mxPoint x="490" y="226" as="sourcePoint" />
            <mxPoint x="550" y="395" as="targetPoint" />
          </mxGeometry>
        </mxCell>
        <mxCell id="7kY1SfQGC0tW5TCl2VxB-29" value="" style="rounded=0;whiteSpace=wrap;html=1;fillColor=none;dashed=1;dashPattern=8 8;" vertex="1" parent="1">
          <mxGeometry x="400" y="170" width="90" height="80" as="geometry" />
        </mxCell>
      </root>
    </mxGraphModel>
  </diagram>
</mxfile>
